<mxfile host="app.diagrams.net" modified="2023-08-14T19:19:26.323Z" agent="Mozilla/5.0 (Windows NT 10.0; Win64; x64) AppleWebKit/537.36 (KHTML, like Gecko) Chrome/115.0.0.0 Safari/537.36" etag="JTyhHFnpZNv8P0XGcp82" version="21.6.7" type="device">
  <diagram name="PÃ¡gina-1" id="ZnYowZEBIPFXKZ0vV52x">
    <mxGraphModel dx="1050" dy="574" grid="1" gridSize="10" guides="1" tooltips="1" connect="1" arrows="1" fold="1" page="1" pageScale="1" pageWidth="827" pageHeight="1169" math="0" shadow="0">
      <root>
        <mxCell id="0" />
        <mxCell id="1" parent="0" />
        <mxCell id="uSHcywM8Flrv18b6B2z6-3" value="" style="verticalLabelPosition=bottom;verticalAlign=top;html=1;shadow=0;dashed=0;strokeWidth=5;shape=mxgraph.android.phone2;strokeColor=#000000;fillColor=#000000;" vertex="1" parent="1">
          <mxGeometry x="300" y="30" width="220" height="440" as="geometry" />
        </mxCell>
        <mxCell id="uSHcywM8Flrv18b6B2z6-8" value="" style="shape=rect;strokeColor=none;fillColor=#ffffff;gradientColor=none;shadow=0;sketch=1;hachureGap=4;pointerEvents=0;fontFamily=Architects Daughter;fontSource=https%3A%2F%2Ffonts.googleapis.com%2Fcss%3Ffamily%3DArchitects%2BDaughter;fontSize=20;" vertex="1" parent="1">
          <mxGeometry x="300" y="80" width="220" height="210" as="geometry" />
        </mxCell>
        <mxCell id="uSHcywM8Flrv18b6B2z6-9" value="Saturday 10:12 AM" style="shape=text;align=center;verticalAlign=middle;fontSize=5;fontColor=#999999;strokeColor=none;fillColor=none;spacingTop=0;resizeWidth=1;sketch=0;hachureGap=4;pointerEvents=0;fontFamily=Verdana;whiteSpace=wrap;html=1;" vertex="1" parent="uSHcywM8Flrv18b6B2z6-8">
          <mxGeometry width="220" height="10" relative="1" as="geometry">
            <mxPoint as="offset" />
          </mxGeometry>
        </mxCell>
        <mxCell id="uSHcywM8Flrv18b6B2z6-10" value="Hey man, got a sec?" style="html=1;strokeWidth=1;shadow=0;dashed=0;shape=mxgraph.ios7ui.callout;strokeColor=none;fillColor=#E7E6EC;align=left;verticalAlign=middle;fontSize=6;spacingLeft=17;fontColor=#000000;spacingTop=0;whiteSpace=wrap;resizeWidth=1;sketch=0;hachureGap=4;pointerEvents=0;fontFamily=Verdana;" vertex="1" parent="uSHcywM8Flrv18b6B2z6-8">
          <mxGeometry width="120.73170731707319" height="20" relative="1" as="geometry">
            <mxPoint x="5" y="15" as="offset" />
          </mxGeometry>
        </mxCell>
        <mxCell id="uSHcywM8Flrv18b6B2z6-11" value="Hi Tim, of course, just give me a couple minutes to finish breakfast." style="html=1;strokeWidth=1;shadow=0;dashed=0;shape=mxgraph.ios7ui.callout;strokeColor=none;fillColor=#0680FF;flipH=1;align=left;verticalAlign=top;fontSize=6;spacingLeft=2;fontColor=#ffffff;spacingTop=-2;whiteSpace=wrap;spacingRight=12;resizeWidth=1;sketch=0;hachureGap=4;pointerEvents=0;fontFamily=Verdana;" vertex="1" parent="uSHcywM8Flrv18b6B2z6-8">
          <mxGeometry x="0.35" width="134.14634146341464" height="35" relative="1" as="geometry">
            <mxPoint y="40" as="offset" />
          </mxGeometry>
        </mxCell>
        <mxCell id="uSHcywM8Flrv18b6B2z6-12" value="Read Friday" style="shape=text;align=right;verticalAlign=middle;fontSize=5;fontColor=#999999;strokeColor=none;fillColor=none;spacingTop=0;resizeWidth=1;sketch=0;hachureGap=4;pointerEvents=0;fontFamily=Verdana;whiteSpace=wrap;html=1;" vertex="1" parent="uSHcywM8Flrv18b6B2z6-8">
          <mxGeometry width="220" height="10" relative="1" as="geometry">
            <mxPoint y="80" as="offset" />
          </mxGeometry>
        </mxCell>
        <mxCell id="uSHcywM8Flrv18b6B2z6-19" value="" style="html=1;verticalLabelPosition=bottom;labelBackgroundColor=#ffffff;verticalAlign=top;shadow=0;dashed=0;strokeWidth=2;shape=mxgraph.ios7.misc.info;strokeColor=#0080f0;sketch=0;" vertex="1" parent="uSHcywM8Flrv18b6B2z6-8">
          <mxGeometry x="200" y="9.130434782608695" width="12" height="10.956521739130435" as="geometry" />
        </mxCell>
        <mxCell id="uSHcywM8Flrv18b6B2z6-41" style="edgeStyle=orthogonalEdgeStyle;rounded=0;orthogonalLoop=1;jettySize=auto;html=1;exitX=0;exitY=0.25;exitDx=0;exitDy=0;entryX=0;entryY=1;entryDx=0;entryDy=0;" edge="1" parent="1" source="uSHcywM8Flrv18b6B2z6-13" target="uSHcywM8Flrv18b6B2z6-8">
          <mxGeometry relative="1" as="geometry" />
        </mxCell>
        <mxCell id="uSHcywM8Flrv18b6B2z6-13" value="" style="shape=rect;fillColor=#F7F7F7;strokeColor=none;" vertex="1" parent="1">
          <mxGeometry x="300" y="280" width="220" height="40" as="geometry" />
        </mxCell>
        <mxCell id="uSHcywM8Flrv18b6B2z6-14" value="iMessage" style="html=1;strokeWidth=1;shadow=0;dashed=0;shape=mxgraph.ios7ui.marginRect;rx=3;ry=3;rectMarginLeft=25;rectMarginRight=25;rectMarginTop=3;rectMarginBottom=3;fillColor=#FBFBFB;strokeColor=#B3B3B3;fontColor=#B3B3B3;align=left;spacingLeft=29;fontSize=8;" vertex="1" parent="uSHcywM8Flrv18b6B2z6-13">
          <mxGeometry width="220" height="40" as="geometry" />
        </mxCell>
        <mxCell id="uSHcywM8Flrv18b6B2z6-15" value="" style="strokeWidth=1;strokeColor=#F7F7F7;fillColor=#666666;shape=mxgraph.ios7.icons.camera;" vertex="1" parent="uSHcywM8Flrv18b6B2z6-13">
          <mxGeometry y="0.5" width="15" height="9" relative="1" as="geometry">
            <mxPoint x="5" y="-4.5" as="offset" />
          </mxGeometry>
        </mxCell>
        <mxCell id="uSHcywM8Flrv18b6B2z6-16" value="" style="strokeColor=none;fillColor=#666666;shape=ellipse;" vertex="1" parent="uSHcywM8Flrv18b6B2z6-13">
          <mxGeometry x="1" y="0.5" width="14" height="14" relative="1" as="geometry">
            <mxPoint x="-19" y="-7" as="offset" />
          </mxGeometry>
        </mxCell>
        <mxCell id="uSHcywM8Flrv18b6B2z6-17" value="" style="strokeColor=#F7F7F7;fillColor=none;shape=mxgraph.ios7.icons.microphone;strokeWidth=1;" vertex="1" parent="uSHcywM8Flrv18b6B2z6-16">
          <mxGeometry x="0.5" y="0.5" width="4" height="10" relative="1" as="geometry">
            <mxPoint x="-2" y="-5" as="offset" />
          </mxGeometry>
        </mxCell>
        <mxCell id="uSHcywM8Flrv18b6B2z6-18" value="&lt;font style=&quot;font-size: 25px;&quot;&gt;A Partir de R$7.999,99&lt;/font&gt;" style="text;html=1;align=center;verticalAlign=middle;resizable=0;points=[];autosize=1;strokeColor=none;fillColor=none;" vertex="1" parent="1">
          <mxGeometry x="150" y="515" width="280" height="40" as="geometry" />
        </mxCell>
        <mxCell id="uSHcywM8Flrv18b6B2z6-35" value="" style="edgeStyle=orthogonalEdgeStyle;rounded=0;orthogonalLoop=1;jettySize=auto;html=1;" edge="1" parent="1" source="uSHcywM8Flrv18b6B2z6-20" target="uSHcywM8Flrv18b6B2z6-21">
          <mxGeometry relative="1" as="geometry" />
        </mxCell>
        <mxCell id="uSHcywM8Flrv18b6B2z6-20" value="" style="html=1;verticalLabelPosition=bottom;labelBackgroundColor=#ffffff;verticalAlign=top;shadow=0;dashed=0;strokeWidth=2;shape=mxgraph.ios7.misc.keyboard_(letters);sketch=0;" vertex="1" parent="1">
          <mxGeometry x="300" y="320" width="220" height="120" as="geometry" />
        </mxCell>
        <mxCell id="uSHcywM8Flrv18b6B2z6-21" value="" style="verticalLabelPosition=bottom;verticalAlign=top;html=1;shape=mxgraph.basic.rect;fillColor2=none;strokeWidth=1;size=20;indent=0;fillColor=#000000;" vertex="1" parent="1">
          <mxGeometry x="370" y="440" width="80" height="30" as="geometry" />
        </mxCell>
        <mxCell id="uSHcywM8Flrv18b6B2z6-22" value="" style="html=1;verticalLabelPosition=bottom;labelBackgroundColor=#ffffff;verticalAlign=top;shadow=0;dashed=0;strokeWidth=2;shape=mxgraph.ios7.misc.scroll_(horizontal);fillColor=#a0a0a0;" vertex="1" parent="1">
          <mxGeometry x="374" y="434" width="80" height="6" as="geometry" />
        </mxCell>
        <mxCell id="uSHcywM8Flrv18b6B2z6-27" value="" style="html=1;strokeWidth=1;shadow=0;dashed=0;shape=mxgraph.ios7ui.appBar;fillColor=#ffffff;gradientColor=none;sketch=0;hachureGap=4;pointerEvents=0;" vertex="1" parent="1">
          <mxGeometry x="300" y="60" width="220" height="55" as="geometry" />
        </mxCell>
        <mxCell id="uSHcywM8Flrv18b6B2z6-28" value="CARRIER" style="shape=rect;sketch=0;align=left;fontSize=8;spacingLeft=24;fontSize=4;fontColor=#aaaaaa;strokeColor=none;fillColor=none;spacingTop=4;hachureGap=4;pointerEvents=0;html=1;" vertex="1" parent="uSHcywM8Flrv18b6B2z6-27">
          <mxGeometry y="0.5" width="50" height="13" relative="1" as="geometry">
            <mxPoint y="-6.5" as="offset" />
          </mxGeometry>
        </mxCell>
        <mxCell id="uSHcywM8Flrv18b6B2z6-29" value="11:55PM" style="shape=rect;sketch=0;fontSize=8;fontColor=#aaaaaa;strokeColor=none;fillColor=none;spacingTop=4;hachureGap=4;pointerEvents=0;html=1;" vertex="1" parent="uSHcywM8Flrv18b6B2z6-27">
          <mxGeometry x="0.5" y="0.5" width="50" height="13" relative="1" as="geometry">
            <mxPoint x="-30" y="-6.5" as="offset" />
          </mxGeometry>
        </mxCell>
        <mxCell id="uSHcywM8Flrv18b6B2z6-30" value="98%" style="shape=rect;align=right;fontSize=8;spacingRight=19;fontSize=6;fontColor=#aaaaaa;strokeColor=none;fillColor=none;spacingTop=4;sketch=0;hachureGap=4;pointerEvents=0;html=1;" vertex="1" parent="uSHcywM8Flrv18b6B2z6-27">
          <mxGeometry x="1" y="0.5" width="45" height="13" relative="1" as="geometry">
            <mxPoint x="-45" y="-6.5" as="offset" />
          </mxGeometry>
        </mxCell>
        <mxCell id="uSHcywM8Flrv18b6B2z6-33" value="Iphone INT=?" style="text;html=1;align=center;verticalAlign=middle;resizable=0;points=[];autosize=1;strokeColor=none;fillColor=none;" vertex="1" parent="1">
          <mxGeometry x="100" y="370" width="100" height="30" as="geometry" />
        </mxCell>
      </root>
    </mxGraphModel>
  </diagram>
</mxfile>
